<svg xmlns="http://www.w3.org/2000/svg" width="239.336" height="38.32" viewBox="0 0 239.336 38.32"><g transform="translate(-51.836 -53)"><path d="M25.039-3.594A10.17,10.17,0,0,1,20.566-.654,18.731,18.731,0,0,1,14.16.391,12.69,12.69,0,0,1,7.686-1.221,10.747,10.747,0,0,1,3.389-5.9a16.463,16.463,0,0,1-1.553-7.207v-1.934a17.484,17.484,0,0,1,1.436-7.373,10.619,10.619,0,0,1,4.141-4.766,11.927,11.927,0,0,1,6.338-1.65q5.059,0,7.91,2.412a10.308,10.308,0,0,1,3.379,7.021h-5.7a5.67,5.67,0,0,0-1.729-3.574A5.52,5.52,0,0,0,13.926-24.1a5.2,5.2,0,0,0-4.551,2.246q-1.563,2.246-1.582,6.68v1.816q0,4.473,1.7,6.758a5.819,5.819,0,0,0,4.98,2.285q3.3,0,4.707-1.406v-4.9H13.848v-4.316H25.039ZM59.063.391a10.374,10.374,0,0,1-7.568-2.852,10.136,10.136,0,0,1-2.92-7.6v-.547A12.766,12.766,0,0,1,49.8-16.3a9.03,9.03,0,0,1,3.486-3.867,9.785,9.785,0,0,1,5.146-1.357,8.77,8.77,0,0,1,6.826,2.734q2.49,2.734,2.49,7.754v2.3H54.3a5.244,5.244,0,0,0,1.65,3.32,4.989,4.989,0,0,0,3.486,1.25,6.093,6.093,0,0,0,5.1-2.363L67.3-3.418a8.473,8.473,0,0,1-3.437,2.8A11.278,11.278,0,0,1,59.063.391Zm-.645-17.363a3.527,3.527,0,0,0-2.725,1.138,5.892,5.892,0,0,0-1.338,3.257h7.852v-.451a4.2,4.2,0,0,0-1.016-2.913A3.639,3.639,0,0,0,58.418-16.973ZM80.684.391a10.374,10.374,0,0,1-7.568-2.852,10.136,10.136,0,0,1-2.92-7.6v-.547a12.766,12.766,0,0,1,1.23-5.693,9.03,9.03,0,0,1,3.486-3.867,9.785,9.785,0,0,1,5.146-1.357,8.77,8.77,0,0,1,6.826,2.734q2.49,2.734,2.49,7.754v2.3H75.918a5.244,5.244,0,0,0,1.65,3.32,4.989,4.989,0,0,0,3.486,1.25,6.093,6.093,0,0,0,5.1-2.363l2.773,3.105a8.473,8.473,0,0,1-3.437,2.8A11.278,11.278,0,0,1,80.684.391Zm-.645-17.363a3.527,3.527,0,0,0-2.725,1.138,5.892,5.892,0,0,0-1.338,3.257h7.852v-.451a4.2,4.2,0,0,0-1.016-2.913A3.639,3.639,0,0,0,80.039-16.973Zm17.734-4.16.176,2.441a7.378,7.378,0,0,1,6.074-2.832,6.132,6.132,0,0,1,5,1.973q1.641,1.973,1.68,5.9V0h-5.645V-13.516a3.662,3.662,0,0,0-.781-2.607,3.5,3.5,0,0,0-2.6-.811A3.883,3.883,0,0,0,98.105-14.9V0H92.461V-21.133Zm44.648,9.512h-11.25V0h-5.859V-28.437h18.516v4.746H131.172v7.344h11.25ZM172.734,0H167.07V-21.133h5.664Zm-6-26.6a2.78,2.78,0,0,1,.85-2.09,3.192,3.192,0,0,1,2.314-.82,3.2,3.2,0,0,1,2.3.82,2.764,2.764,0,0,1,.859,2.09,2.771,2.771,0,0,1-.869,2.109,3.207,3.207,0,0,1-2.295.82,3.207,3.207,0,0,1-2.295-.82A2.771,2.771,0,0,1,166.738-26.6ZM176.5-10.723a12.736,12.736,0,0,1,2.217-7.871,7.193,7.193,0,0,1,6.064-2.93,6.472,6.472,0,0,1,5.1,2.3V-30h5.664V0h-5.1l-.273-2.246a6.642,6.642,0,0,1-5.43,2.637,7.174,7.174,0,0,1-5.986-2.939Q176.5-5.488,176.5-10.723Zm5.645.42a8.342,8.342,0,0,0,1.035,4.558,3.372,3.372,0,0,0,3.008,1.584,3.777,3.777,0,0,0,3.691-2.21v-8.353a3.723,3.723,0,0,0-3.652-2.21Q182.148-16.934,182.148-10.3Zm16.953-.42a12.385,12.385,0,0,1,2.314-7.832,7.5,7.5,0,0,1,6.24-2.969,6.577,6.577,0,0,1,5.41,2.383l.234-1.992h5.117V-.7a9.032,9.032,0,0,1-1.26,4.824,8.091,8.091,0,0,1-3.545,3.125,12.462,12.462,0,0,1-5.352,1.074,11.588,11.588,0,0,1-4.531-.928A8.042,8.042,0,0,1,200.391,5l2.5-3.437a6.612,6.612,0,0,0,5.117,2.363,4.839,4.839,0,0,0,3.5-1.2,4.505,4.505,0,0,0,1.25-3.408V-1.816A6.529,6.529,0,0,1,207.617.391a7.48,7.48,0,0,1-6.162-2.979,12.382,12.382,0,0,1-2.354-7.9Zm5.645.42A7.712,7.712,0,0,0,205.9-5.793a3.666,3.666,0,0,0,3.164,1.633A3.919,3.919,0,0,0,212.754-6.1V-15a3.91,3.91,0,0,0-3.652-1.937,3.689,3.689,0,0,0-3.193,1.663A8.692,8.692,0,0,0,204.746-10.3ZM232.48.391a10.374,10.374,0,0,1-7.568-2.852,10.136,10.136,0,0,1-2.92-7.6v-.547a12.766,12.766,0,0,1,1.23-5.693,9.03,9.03,0,0,1,3.486-3.867,9.785,9.785,0,0,1,5.146-1.357,8.77,8.77,0,0,1,6.826,2.734q2.49,2.734,2.49,7.754v2.3H227.715a5.244,5.244,0,0,0,1.65,3.32,4.989,4.989,0,0,0,3.486,1.25,6.093,6.093,0,0,0,5.1-2.363l2.773,3.105a8.473,8.473,0,0,1-3.437,2.8A11.278,11.278,0,0,1,232.48.391Zm-.645-17.363a3.527,3.527,0,0,0-2.725,1.138,5.892,5.892,0,0,0-1.338,3.257h7.852v-.451a4.2,4.2,0,0,0-1.016-2.913A3.639,3.639,0,0,0,231.836-16.973Z" transform="translate(50 83)" fill="#09ff00"/><path d="M88.322,72.183s-2.06-8.455-10.718-7.726c-.772,10.978,9.688,9.461,9.688,9.461s.035,6.993,1.274,6.978.867-11.315.867-11.315,7.661,1.547,9.362-9.7C87.806,58.832,88.647,67.332,88.322,72.183Z" transform="translate(0 2)" fill="#09ff00"/><path d="M88.322,72.183s-2.06-8.455-10.718-7.726c-.772,10.978,9.688,9.461,9.688,9.461s.035,6.993,1.274,6.978.867-11.315.867-11.315,7.661,1.547,9.362-9.7C87.806,58.832,88.647,67.332,88.322,72.183Z" transform="translate(117 2)" fill="#09ff00"/></g></svg>